<svg width="159" height="26" viewBox="0 0 159 26" fill="none" xmlns="http://www.w3.org/2000/svg">
<path d="M3.85227 17C6.51136 17 8.12216 15.3551 8.12216 12.6278C8.12216 9.90909 6.51136 8.27273 3.87784 8.27273H0.758523V17H3.85227ZM2.60369 15.419V9.85369H3.77983C5.41619 9.85369 6.28125 10.6889 6.28125 12.6278C6.28125 14.5753 5.41619 15.419 3.77557 15.419H2.60369ZM10.5011 17L11.1488 15.0099H14.2979L14.9457 17H16.9229L13.9144 8.27273H11.5366L8.52379 17H10.5011ZM11.6175 13.5696L12.6914 10.267H12.7596L13.8335 13.5696H11.6175ZM17.9734 17H19.8185V13.9062H21.1651L22.8185 17H24.8555L23.0018 13.608C23.9947 13.1818 24.5444 12.3168 24.5444 11.1236C24.5444 9.3892 23.3981 8.27273 21.4165 8.27273H17.9734V17ZM19.8185 12.4233V9.78125H21.0629C22.1282 9.78125 22.6438 10.2543 22.6438 11.1236C22.6438 11.9886 22.1282 12.4233 21.0714 12.4233H19.8185ZM25.8484 17H27.6935V14.5199L28.6012 13.4119L30.9918 17H33.1992L29.9222 12.1804L33.1609 8.27273H30.9492L27.8086 12.1207H27.6935V8.27273H25.8484V17ZM36.8991 8.27273V17H38.6889V11.2983H38.7614L41.0199 16.9574H42.2386L44.4972 11.3196H44.5696V17H46.3594V8.27273H44.0838L41.6804 14.1364H41.5781L39.1747 8.27273H36.8991ZM55.8995 12.6364C55.8995 9.78125 54.1268 8.15341 51.8129 8.15341C49.4862 8.15341 47.7262 9.78125 47.7262 12.6364C47.7262 15.4787 49.4862 17.1193 51.8129 17.1193C54.1268 17.1193 55.8995 15.4915 55.8995 12.6364ZM54.0288 12.6364C54.0288 14.4858 53.1509 15.4872 51.8129 15.4872C50.4705 15.4872 49.5969 14.4858 49.5969 12.6364C49.5969 10.7869 50.4705 9.78551 51.8129 9.78551C53.1509 9.78551 54.0288 10.7869 54.0288 12.6364ZM60.3601 17C63.0192 17 64.63 15.3551 64.63 12.6278C64.63 9.90909 63.0192 8.27273 60.3857 8.27273H57.2663V17H60.3601ZM59.1115 15.419V9.85369H60.2876C61.924 9.85369 62.7891 10.6889 62.7891 12.6278C62.7891 14.5753 61.924 15.419 60.2834 15.419H59.1115ZM65.9968 17H71.8945V15.4787H67.842V13.3949H71.5749V11.8736H67.842V9.79403H71.8775V8.27273H65.9968V17ZM84.1417 12.6364C84.1417 9.78125 82.369 8.15341 80.055 8.15341C77.7283 8.15341 75.9684 9.78125 75.9684 12.6364C75.9684 15.4787 77.7283 17.1193 80.055 17.1193C82.369 17.1193 84.1417 15.4915 84.1417 12.6364ZM82.271 12.6364C82.271 14.4858 81.3931 15.4872 80.055 15.4872C78.7127 15.4872 77.8391 14.4858 77.8391 12.6364C77.8391 10.7869 78.7127 9.78551 80.055 9.78551C81.3931 9.78551 82.271 10.7869 82.271 12.6364ZM85.5085 17H87.3537V13.3949H90.9034V11.8736H87.3537V9.79403H91.2869V8.27273H85.5085V17ZM92.5281 17H94.3732V13.3949H97.9229V11.8736H94.3732V9.79403H98.3065V8.27273H92.5281V17Z" fill="#6E7E91"/>
<g clip-path="url(#clip0_25_1156)">
<path d="M124.176 0.5H145.824C152.831 0.5 158.5 6.10278 158.5 13C158.5 19.8972 152.831 25.5 145.824 25.5H124.176C117.169 25.5 111.5 19.8972 111.5 13C111.5 6.10278 117.169 0.5 124.176 0.5Z" fill="white" stroke="#6E7E91"/>
<path d="M145.824 0.464233H124.177C117.159 0.464233 111.471 6.07666 111.471 12.9999C111.471 19.9232 117.159 25.5357 124.177 25.5357H145.824C152.841 25.5357 158.53 19.9232 158.53 12.9999C158.53 6.07666 152.841 0.464233 145.824 0.464233Z" fill="#E5E5E5" stroke="#D1D5DA" stroke-opacity="0.3"/>
<path d="M124 23C129.523 23 134 18.5228 134 13C134 7.47715 129.523 3 124 3C118.477 3 114 7.47715 114 13C114 18.5228 118.477 23 124 23Z" fill="#6E7E91"/>
<g clip-path="url(#clip1_25_1156)">
<path d="M124 8.7179C121.635 8.7179 119.718 10.6351 119.718 13C119.718 15.365 121.635 17.2821 124 17.2821C126.365 17.2821 128.282 15.365 128.282 13C128.282 10.6351 126.365 8.7179 124 8.7179ZM124 16.5V9.50002C125.662 9.4956 127.095 10.6667 127.422 12.2961C127.526 12.7596 127.526 13.2404 127.422 13.7039C127.095 15.3334 125.662 16.5045 124 16.5Z" fill="white"/>
<path d="M127.441 9.55866C127.513 9.63235 127.612 9.67449 127.715 9.67599C127.818 9.67453 127.916 9.63235 127.989 9.55866L128.947 8.60056C129.12 8.47095 129.155 8.22585 129.025 8.05306C128.895 7.88026 128.65 7.84527 128.477 7.97484C128.448 7.99707 128.421 8.02341 128.399 8.05306L127.441 9.01116C127.29 9.14986 127.28 9.38489 127.419 9.53605C127.426 9.54391 127.433 9.55144 127.441 9.55866Z" fill="white"/>
<path d="M120.48 16.4415C120.341 16.3372 120.15 16.3372 120.011 16.4415L119.053 17.3996C118.902 17.5383 118.892 17.7733 119.03 17.9245C119.038 17.9323 119.045 17.9399 119.053 17.9471C119.192 18.0983 119.427 18.1084 119.578 17.9696C119.586 17.9624 119.593 17.9549 119.6 17.9471L120.559 16.9889C120.688 16.8162 120.653 16.5711 120.48 16.4415Z" fill="white"/>
<path d="M128.947 17.3995L127.989 16.4414C127.816 16.3118 127.571 16.3468 127.441 16.5196C127.337 16.6587 127.337 16.8499 127.441 16.9889L128.4 17.947C128.538 18.0982 128.773 18.1083 128.924 17.9696C128.932 17.9624 128.94 17.9548 128.947 17.947C129.098 17.8083 129.108 17.5733 128.97 17.4221C128.962 17.4142 128.955 17.4067 128.947 17.3995Z" fill="white"/>
<path d="M120.011 9.55866C120.15 9.70986 120.385 9.71997 120.536 9.58123C120.544 9.57404 120.551 9.56648 120.558 9.55866C120.71 9.41996 120.72 9.18493 120.581 9.03377C120.574 9.02591 120.566 9.01838 120.558 9.0112L119.6 8.0531C119.428 7.92349 119.182 7.95852 119.053 8.13132C118.949 8.27035 118.949 8.46156 119.053 8.6006L120.011 9.55866Z" fill="white"/>
<path d="M124 8.13129C124.216 8.13129 124.391 7.95621 124.391 7.74023V6.39106C124.391 6.17508 124.216 6 124 6C123.784 6 123.609 6.17508 123.609 6.39106V7.74023C123.609 7.95621 123.784 8.13129 124 8.13129Z" fill="white"/>
<path d="M124 17.8688C123.784 17.8688 123.609 18.0439 123.609 18.2598V19.609C123.609 19.825 123.784 20.0001 124 20.0001C124.216 20.0001 124.391 19.825 124.391 19.609V18.2598C124.391 18.0439 124.216 17.8688 124 17.8688Z" fill="white"/>
<path d="M130.609 12.609H129.26C129.044 12.609 128.869 12.7841 128.869 13.0001C128.869 13.2161 129.044 13.3911 129.26 13.3911H130.609C130.825 13.3911 131 13.2161 131 13.0001C131 12.7841 130.825 12.609 130.609 12.609Z" fill="white"/>
<path d="M119.131 13.0001C119.131 12.7841 118.956 12.609 118.74 12.609H117.391C117.175 12.609 117 12.7841 117 13.0001C117 13.2161 117.175 13.3911 117.391 13.3911H118.74C118.956 13.3911 119.131 13.2161 119.131 13.0001Z" fill="white"/>
</g>
</g>
<defs>
<clipPath id="clip0_25_1156">
<rect width="48" height="26" fill="white" transform="translate(111)"/>
</clipPath>
<clipPath id="clip1_25_1156">
<rect width="14" height="14" fill="white" transform="translate(117 6)"/>
</clipPath>
</defs>
</svg>
