<svg width="32" height="32" viewBox="0 0 32 32" fill="none" xmlns="http://www.w3.org/2000/svg">
<path d="M16.029 0.119995C7.20993 0.119995 0.0585938 7.39193 0.0585938 16.363C0.0585938 23.5397 4.63459 29.6284 10.9801 31.7763C11.7783 31.9266 12.0713 31.4239 12.0713 30.9949C12.0713 30.6075 12.0565 29.328 12.0496 27.9707C7.60663 28.9533 6.66911 26.0542 6.66911 26.0542C5.94263 24.1767 4.89588 23.6775 4.89588 23.6775C3.44689 22.6693 5.00511 22.69 5.00511 22.69C6.60881 22.8043 7.45324 24.3639 7.45324 24.3639C8.87763 26.8472 11.1893 26.1292 12.1006 25.7142C12.244 24.6646 12.6579 23.9475 13.1146 23.5422C9.56735 23.1314 5.83843 21.7386 5.83843 15.5147C5.83843 13.7413 6.4623 12.2923 7.48392 11.1547C7.3181 10.7453 6.77145 9.09351 7.63863 6.85612C7.63863 6.85612 8.97972 6.41956 12.0316 8.52112C13.3055 8.16122 14.6718 7.98073 16.029 7.97455C17.3862 7.98073 18.7535 8.16122 20.0298 8.52112C23.078 6.41956 24.4172 6.85612 24.4172 6.85612C25.2865 9.09351 24.7396 10.7453 24.5738 11.1547C25.5978 12.2923 26.2174 13.7413 26.2174 15.5147C26.2174 21.7534 22.4813 23.1271 18.9251 23.5293C19.4979 24.0333 20.0083 25.0218 20.0083 26.5373C20.0083 28.7104 19.9898 30.4596 19.9898 30.9949C19.9898 31.4271 20.2773 31.9336 21.0868 31.7741C27.4289 29.6239 31.9991 23.5373 31.9991 16.363C31.9991 7.39193 24.8488 0.119995 16.029 0.119995Z" fill="currentColor"/>
<path d="M6.1074 23.4415C6.07222 23.5225 5.9474 23.5464 5.83368 23.491C5.71784 23.438 5.65278 23.328 5.69034 23.247C5.72472 23.1639 5.84981 23.1411 5.96538 23.1962C6.08148 23.2495 6.14759 23.3606 6.1074 23.4415Z" fill="currentColor"/>
<path d="M6.75387 24.1754C6.6777 24.2472 6.52881 24.2138 6.42779 24.1003C6.32332 23.9871 6.30375 23.8356 6.38098 23.7628C6.45952 23.6909 6.60392 23.7246 6.70865 23.8378C6.81311 23.9524 6.83347 24.1027 6.75387 24.1754Z" fill="currentColor"/>
<path d="M7.38399 25.1109C7.28614 25.18 7.12614 25.1152 7.02723 24.9708C6.92938 24.8263 6.92938 24.6531 7.02934 24.5837C7.12852 24.5143 7.28614 24.5767 7.38637 24.7201C7.48395 24.8667 7.48395 25.0402 7.38399 25.1109Z" fill="currentColor"/>
<path d="M8.24618 26.0146C8.15865 26.1128 7.9722 26.0864 7.83574 25.9525C7.6961 25.8215 7.65722 25.6356 7.74502 25.5374C7.83362 25.439 8.02112 25.4667 8.15865 25.5996C8.29722 25.7303 8.33954 25.9175 8.24618 26.0146Z" fill="currentColor"/>
<path d="M9.43659 26.5395C9.39798 26.6667 9.21841 26.7245 9.03752 26.6705C8.85689 26.6148 8.73868 26.4658 8.77517 26.3372C8.81273 26.2092 8.99309 26.1489 9.1753 26.2067C9.35567 26.2621 9.47415 26.4101 9.43659 26.5395Z" fill="currentColor"/>
<path d="M10.7439 26.6368C10.7484 26.7708 10.595 26.8819 10.4051 26.884C10.2142 26.8886 10.0597 26.7802 10.0576 26.6484C10.0576 26.5131 10.2076 26.4031 10.3985 26.3999C10.5884 26.3961 10.7439 26.5037 10.7439 26.6368Z" fill="currentColor"/>
<path d="M11.9602 26.4262C11.983 26.5569 11.851 26.6912 11.6624 26.7267C11.477 26.7614 11.3054 26.6807 11.2819 26.551C11.2589 26.4171 11.3932 26.2828 11.5783 26.2481C11.7672 26.2148 11.9361 26.2933 11.9602 26.4262Z" fill="currentColor"/>
</svg>
